<svg width="1056" height="999" viewBox="0 0 1056 999" fill="none" xmlns="http://www.w3.org/2000/svg">
<path d="M26.1369 600.081C23.7069 589.851 20.8869 579.081 18.6269 568.241C11.1341 531.646 8.50469 494.223 10.8069 456.941C16.0069 366.681 44.8069 284.681 98.5369 211.691C127.877 171.821 162.027 136.521 202.377 107.841C221.987 93.9007 243.187 82.1007 264.227 70.3307C292.657 54.4107 323.227 43.2807 354.227 33.7107C394.333 21.355 435.768 13.8186 477.657 11.2607C522.157 8.52074 566.477 10.0807 610.467 17.5807C646.967 23.8107 682.817 32.7607 717.467 45.8607C775.777 67.8607 829.677 97.7307 876.687 138.861C945.247 198.861 996.617 270.761 1023.9 358.521C1035.53 395.765 1042.53 434.297 1044.76 473.251C1046.85 510.251 1043.62 546.771 1036.61 583.051C1036.45 584.038 1036.24 585.016 1035.98 585.981C1034.66 590.351 1034.91 594.721 1027.16 594.031C1017.48 593.161 1007.5 595.331 997.657 596.341C984.157 597.721 970.517 598.441 957.217 600.941C945.167 603.211 933.427 607.791 924.137 616.161C911.137 627.831 899.057 640.531 890.417 655.781C883.419 668.059 877.278 680.806 872.037 693.931C864.66 712.727 860.065 732.498 858.397 752.621C855.53 785.761 852.574 818.897 849.527 852.031C848.647 861.641 847.347 871.201 846.347 880.801C845.867 885.401 842.587 887.581 839.167 889.801C832.167 894.261 825.257 898.801 818.257 903.241C796.417 917.091 774.347 930.381 750.807 941.421C718.007 956.764 683.598 968.4 648.217 976.111C603.987 985.831 559.217 990.571 513.877 988.441C466.477 986.131 419.727 979.621 374.537 964.621C347.357 955.621 320.947 944.541 296.017 930.311C276.857 919.371 258.017 907.871 239.017 896.601C232.307 892.601 228.417 887.251 228.497 878.871C228.537 872.621 226.837 866.331 226.307 860.041C224.847 842.841 223.747 825.621 222.237 808.411C220.717 791.051 219.067 773.701 217.137 756.411C212.547 715.411 198.057 678.541 171.217 646.791C160.927 634.621 149.737 623.621 135.867 615.621C121.997 607.621 107.917 601.621 91.1869 602.361C73.7569 603.111 56.2469 601.961 38.7769 601.521C36.6969 601.461 34.6569 600.441 32.5669 600.151C30.4269 599.999 28.2798 599.976 26.1369 600.081Z" fill="#1E1E1E" stroke="#FFC900" stroke-width="20"/>
</svg>
